<svg width="1440" height="1084" viewBox="0 0 1440 1084" fill="none" xmlns="http://www.w3.org/2000/svg">
<rect width="1440" height="1024" fill="url(#paint0_linear_953_12602)"/>
<mask id="mask0_953_12602" style="mask-type:luminance" maskUnits="userSpaceOnUse" x="102" y="210" width="121" height="99">
<path d="M222.6 210.293H102.013V308.89H222.6V210.293Z" fill="white"/>
</mask>
<g mask="url(#mask0_953_12602)">
<mask id="mask1_953_12602" style="mask-type:luminance" maskUnits="userSpaceOnUse" x="46" y="125" width="233" height="214">
<path d="M236.759 125.527L46.5907 174.244L88.5743 338.128L278.742 289.411L236.759 125.527Z" fill="white"/>
</mask>
<g mask="url(#mask1_953_12602)">
<mask id="mask2_953_12602" style="mask-type:luminance" maskUnits="userSpaceOnUse" x="46" y="125" width="233" height="214">
<path d="M236.759 125.527L46.5907 174.244L88.5743 338.128L278.742 289.411L236.759 125.527Z" fill="white"/>
</mask>
<g mask="url(#mask2_953_12602)">
<path fill-rule="evenodd" clip-rule="evenodd" d="M172.628 260.126C172.628 260.126 155.54 239.265 134.87 249.309C114.205 259.348 134.468 311.137 208.413 305.188C208.413 305.188 161.348 319.494 119.14 290.323C76.9318 261.151 120.922 202.651 166.729 235.15C166.729 235.15 179.68 203.122 201.935 212.537C224.188 221.955 234.47 265.05 197.735 292.032C197.735 292.032 219.674 245.031 200.741 233.593C181.808 222.155 172.628 260.126 172.628 260.126Z" fill="#3BB4FB"/>
</g>
</g>
</g>
<mask id="mask3_953_12602" style="mask-type:luminance" maskUnits="userSpaceOnUse" x="159" y="150" width="36" height="50">
<path d="M194.227 150H159.469V199.653H194.227V150Z" fill="white"/>
</mask>
<g mask="url(#mask3_953_12602)">
<mask id="mask4_953_12602" style="mask-type:luminance" maskUnits="userSpaceOnUse" x="46" y="125" width="233" height="214">
<path d="M236.759 125.528L46.5907 174.245L88.5743 338.129L278.742 289.412L236.759 125.528Z" fill="white"/>
</mask>
<g mask="url(#mask4_953_12602)">
<mask id="mask5_953_12602" style="mask-type:luminance" maskUnits="userSpaceOnUse" x="46" y="125" width="233" height="214">
<path d="M236.759 125.528L46.5907 174.245L88.5743 338.129L278.742 289.412L236.759 125.528Z" fill="white"/>
</mask>
<g mask="url(#mask5_953_12602)">
<path d="M159.682 176.633C159.754 177.434 159.854 178.229 159.979 179.022C160.106 179.814 160.259 180.596 160.439 181.372C160.619 182.147 160.824 182.909 161.057 183.66C161.287 184.414 161.542 185.148 161.821 185.869C162.104 186.589 162.406 187.29 162.733 187.972C163.06 188.653 163.409 189.313 163.778 189.95C164.149 190.587 164.54 191.2 164.95 191.787C165.36 192.374 165.786 192.931 166.233 193.463C166.679 193.993 167.139 194.494 167.618 194.962C168.095 195.431 168.585 195.866 169.089 196.27C169.594 196.672 170.109 197.041 170.635 197.373C171.162 197.706 171.697 198.002 172.24 198.263C172.783 198.52 173.334 198.745 173.888 198.928C174.443 199.11 175.002 199.257 175.565 199.363C176.124 199.471 176.687 199.537 177.249 199.568C177.812 199.595 178.374 199.584 178.931 199.534C179.491 199.484 180.042 199.393 180.591 199.266C181.14 199.138 181.683 198.969 182.215 198.764C182.749 198.559 183.273 198.315 183.786 198.035C184.298 197.755 184.8 197.44 185.288 197.085C185.775 196.733 186.249 196.345 186.706 195.924C187.166 195.503 187.607 195.048 188.031 194.561C188.455 194.076 188.859 193.558 189.247 193.012C189.632 192.466 189.998 191.892 190.342 191.291C190.685 190.69 191.007 190.064 191.303 189.412C191.602 188.761 191.877 188.091 192.126 187.395C192.378 186.703 192.603 185.99 192.802 185.262C193.002 184.533 193.173 183.788 193.323 183.028C193.47 182.272 193.589 181.502 193.68 180.72C193.775 179.942 193.841 179.152 193.88 178.36C193.916 177.564 193.927 176.766 193.91 175.963C193.894 175.162 193.849 174.361 193.777 173.561C193.705 172.763 193.606 171.965 193.478 171.175C193.351 170.382 193.198 169.598 193.018 168.825C192.841 168.049 192.633 167.285 192.403 166.534C192.173 165.783 191.915 165.049 191.636 164.328C191.356 163.608 191.051 162.907 190.727 162.225C190.4 161.541 190.051 160.881 189.679 160.244C189.311 159.607 188.92 158.994 188.51 158.41C188.1 157.822 187.673 157.262 187.227 156.733C186.781 156.201 186.318 155.702 185.842 155.234C185.365 154.766 184.872 154.331 184.368 153.926C183.863 153.525 183.351 153.156 182.824 152.824C182.298 152.491 181.763 152.195 181.217 151.934C180.674 151.674 180.126 151.452 179.571 151.269C179.014 151.084 178.457 150.939 177.895 150.831C177.333 150.726 176.77 150.657 176.208 150.629C175.645 150.601 175.085 150.612 174.526 150.662C173.969 150.712 173.415 150.801 172.866 150.931C172.317 151.059 171.777 151.225 171.242 151.433C170.71 151.638 170.187 151.879 169.674 152.161C169.159 152.441 168.66 152.757 168.172 153.109C167.682 153.464 167.211 153.852 166.751 154.273C166.294 154.694 165.85 155.148 165.426 155.633C165.002 156.121 164.598 156.636 164.213 157.185C163.827 157.731 163.462 158.304 163.118 158.906C162.775 159.507 162.453 160.133 162.154 160.784C161.855 161.435 161.58 162.106 161.331 162.799C161.082 163.494 160.857 164.203 160.658 164.935C160.458 165.664 160.284 166.409 160.137 167.165C159.99 167.925 159.871 168.695 159.777 169.474C159.682 170.255 159.619 171.042 159.58 171.837C159.541 172.632 159.53 173.43 159.549 174.231C159.566 175.035 159.61 175.835 159.682 176.633Z" fill="#3BB4FB"/>
</g>
</g>
</g>
<mask id="mask6_953_12602" style="mask-type:luminance" maskUnits="userSpaceOnUse" x="102" y="159" width="44" height="53">
<path d="M145.282 159.931H102.722V211.712H145.282V159.931Z" fill="white"/>
</mask>
<g mask="url(#mask6_953_12602)">
<mask id="mask7_953_12602" style="mask-type:luminance" maskUnits="userSpaceOnUse" x="46" y="125" width="233" height="214">
<path d="M236.759 125.528L46.5907 174.245L88.5743 338.129L278.742 289.412L236.759 125.528Z" fill="white"/>
</mask>
<g mask="url(#mask7_953_12602)">
<mask id="mask8_953_12602" style="mask-type:luminance" maskUnits="userSpaceOnUse" x="46" y="125" width="233" height="214">
<path d="M236.759 125.528L46.5907 174.245L88.5743 338.129L278.742 289.412L236.759 125.528Z" fill="white"/>
</mask>
<g mask="url(#mask8_953_12602)">
<path d="M140.464 177.293C140.871 178.074 141.251 178.869 141.605 179.676C141.957 180.482 142.281 181.296 142.575 182.119C142.869 182.942 143.132 183.771 143.365 184.602C143.598 185.433 143.797 186.265 143.966 187.096C144.135 187.93 144.271 188.756 144.373 189.581C144.476 190.407 144.545 191.222 144.584 192.031C144.62 192.84 144.623 193.638 144.592 194.422C144.562 195.209 144.498 195.979 144.401 196.733C144.304 197.489 144.174 198.224 144.01 198.941C143.847 199.659 143.653 200.352 143.426 201.025C143.199 201.695 142.941 202.341 142.653 202.962C142.362 203.582 142.043 204.172 141.697 204.735C141.348 205.297 140.974 205.829 140.569 206.328C140.165 206.83 139.735 207.295 139.278 207.727C138.823 208.16 138.344 208.556 137.84 208.916C137.338 209.276 136.812 209.598 136.266 209.883C135.72 210.169 135.158 210.415 134.573 210.623C133.991 210.828 133.39 210.997 132.775 211.122C132.16 211.249 131.533 211.335 130.891 211.382C130.25 211.427 129.599 211.432 128.94 211.396C128.278 211.36 127.61 211.282 126.937 211.163C126.263 211.047 125.587 210.889 124.906 210.692C124.224 210.493 123.542 210.257 122.863 209.98C122.182 209.706 121.503 209.39 120.827 209.038C120.154 208.686 119.486 208.298 118.824 207.874C118.161 207.45 117.507 206.993 116.865 206.5C116.222 206.01 115.593 205.483 114.975 204.929C114.357 204.372 113.756 203.787 113.168 203.175C112.584 202.56 112.016 201.92 111.464 201.255C110.916 200.587 110.386 199.9 109.879 199.188C109.372 198.476 108.89 197.744 108.43 196.993C107.97 196.242 107.535 195.475 107.128 194.693C106.718 193.912 106.338 193.117 105.986 192.311C105.632 191.504 105.307 190.69 105.014 189.867C104.72 189.041 104.457 188.215 104.224 187.384C103.991 186.553 103.792 185.722 103.623 184.887C103.454 184.056 103.318 183.228 103.215 182.405C103.113 181.579 103.044 180.762 103.008 179.953C102.972 179.144 102.969 178.348 102.999 177.561C103.03 176.777 103.094 176.007 103.191 175.251C103.288 174.497 103.418 173.76 103.581 173.045C103.742 172.327 103.939 171.632 104.166 170.961C104.39 170.291 104.651 169.642 104.939 169.024C105.227 168.404 105.546 167.811 105.895 167.248C106.241 166.686 106.618 166.154 107.023 165.655C107.424 165.156 107.854 164.691 108.311 164.259C108.765 163.826 109.245 163.43 109.749 163.07C110.253 162.71 110.777 162.386 111.323 162.1C111.869 161.815 112.434 161.571 113.016 161.363C113.601 161.155 114.199 160.989 114.814 160.862C115.429 160.737 116.058 160.648 116.698 160.604C117.338 160.56 117.99 160.554 118.652 160.59C119.311 160.626 119.979 160.704 120.652 160.82C121.326 160.936 122.004 161.094 122.686 161.294C123.365 161.491 124.047 161.729 124.728 162.003C125.41 162.28 126.086 162.593 126.762 162.945C127.435 163.297 128.106 163.685 128.768 164.109C129.43 164.533 130.081 164.993 130.724 165.483C131.367 165.977 131.999 166.5 132.617 167.057C133.232 167.611 133.836 168.196 134.421 168.811C135.008 169.423 135.576 170.064 136.125 170.731C136.673 171.396 137.203 172.086 137.71 172.798C138.217 173.51 138.699 174.242 139.159 174.993C139.621 175.741 140.054 176.508 140.464 177.293Z" fill="#3BB4FB"/>
</g>
</g>
</g>
<mask id="mask9_953_12602" style="mask-type:luminance" maskUnits="userSpaceOnUse" x="63" y="196" width="38" height="38">
<path d="M100.595 196.106H63.0001V233.701H100.595V196.106Z" fill="white"/>
</mask>
<g mask="url(#mask9_953_12602)">
<mask id="mask10_953_12602" style="mask-type:luminance" maskUnits="userSpaceOnUse" x="46" y="125" width="233" height="214">
<path d="M236.759 125.527L46.5907 174.244L88.5743 338.128L278.742 289.411L236.759 125.527Z" fill="white"/>
</mask>
<g mask="url(#mask10_953_12602)">
<mask id="mask11_953_12602" style="mask-type:luminance" maskUnits="userSpaceOnUse" x="46" y="125" width="233" height="214">
<path d="M236.759 125.527L46.5907 174.244L88.5743 338.128L278.742 289.411L236.759 125.527Z" fill="white"/>
</mask>
<g mask="url(#mask11_953_12602)">
<path d="M92.2238 204.158C92.7226 204.652 93.2019 205.159 93.6674 205.68C94.1301 206.203 94.5735 206.738 94.9946 207.289C95.4186 207.838 95.8176 208.398 96.1972 208.969C96.574 209.539 96.9287 210.118 97.2584 210.706C97.5881 211.293 97.8929 211.886 98.1728 212.482C98.4499 213.08 98.702 213.679 98.9265 214.28C99.1509 214.882 99.3476 215.483 99.5166 216.084C99.6857 216.685 99.8242 217.281 99.935 217.874C100.046 218.47 100.129 219.057 100.179 219.636C100.232 220.218 100.254 220.789 100.245 221.351C100.24 221.914 100.201 222.465 100.135 223.003C100.068 223.54 99.9711 224.064 99.8464 224.574C99.7217 225.084 99.5665 225.577 99.3836 226.054C99.2008 226.53 98.9902 226.985 98.7519 227.422C98.5136 227.86 98.2476 228.276 97.9567 228.672C97.663 229.065 97.3471 229.437 97.0035 229.786C96.6627 230.132 96.2942 230.456 95.9062 230.756C95.5156 231.055 95.1055 231.326 94.6705 231.57C94.2382 231.817 93.7838 232.036 93.3127 232.227C92.8389 232.418 92.3485 232.579 91.8414 232.712C91.3344 232.848 90.8107 232.953 90.2731 233.028C89.7356 233.103 89.187 233.15 88.6245 233.166C88.062 233.183 87.4912 233.169 86.9093 233.127C86.3275 233.086 85.7401 233.014 85.1443 232.911C84.5486 232.812 83.9501 232.681 83.3461 232.523C82.742 232.365 82.138 232.177 81.5339 231.964C80.9271 231.748 80.3258 231.507 79.7218 231.238C79.1205 230.969 78.5248 230.672 77.9318 230.354C77.3389 230.032 76.7542 229.689 76.1779 229.32C75.6016 228.952 75.0336 228.558 74.4766 228.145C73.9225 227.733 73.3794 227.298 72.8474 226.843C72.3181 226.389 71.8028 225.918 71.304 225.425C70.8053 224.934 70.3231 224.427 69.8604 223.903C69.3977 223.382 68.9543 222.845 68.5304 222.296C68.1092 221.748 67.7075 221.185 67.3306 220.614C66.951 220.044 66.5964 219.464 66.2666 218.88C65.9369 218.292 65.6321 217.699 65.355 217.104C65.0752 216.505 64.823 215.907 64.5986 215.303C64.3742 214.701 64.1774 214.1 64.0084 213.502C63.8394 212.9 63.7008 212.302 63.59 211.709C63.4792 211.116 63.3988 210.529 63.3462 209.949C63.2935 209.368 63.2714 208.797 63.2797 208.234C63.288 207.672 63.324 207.12 63.3905 206.583C63.457 206.043 63.554 205.519 63.6787 205.009C63.8034 204.499 63.9585 204.009 64.1414 203.532C64.3243 203.056 64.5349 202.598 64.7732 202.163C65.0115 201.726 65.2775 201.31 65.5712 200.914C65.8621 200.52 66.178 200.149 66.5216 199.8C66.8651 199.451 67.2309 199.129 67.6216 198.83C68.0095 198.531 68.4223 198.259 68.8546 198.013C69.2896 197.769 69.7413 197.55 70.2151 197.359C70.6861 197.168 71.1766 197.007 71.6836 196.871C72.1935 196.738 72.7144 196.633 73.2519 196.558C73.7895 196.483 74.3381 196.436 74.9006 196.419C75.463 196.403 76.0366 196.414 76.6157 196.458C77.1976 196.5 77.7878 196.572 78.3807 196.672C78.9765 196.774 79.575 196.904 80.179 197.062C80.783 197.22 81.3871 197.406 81.9911 197.622C82.5979 197.838 83.202 198.079 83.8032 198.348C84.4045 198.617 85.0002 198.91 85.5932 199.232C86.1862 199.553 86.7708 199.897 87.3471 200.265C87.9262 200.634 88.4915 201.025 89.0484 201.44C89.6054 201.853 90.1485 202.288 90.6777 202.742C91.2097 203.197 91.7223 203.668 92.2238 204.158Z" fill="#3BB4FB"/>
</g>
</g>
</g>
<mask id="mask12_953_12602" style="mask-type:luminance" maskUnits="userSpaceOnUse" x="210" y="159" width="33" height="44">
<path d="M242.461 159.931H210.541V202.491H242.461V159.931Z" fill="white"/>
</mask>
<g mask="url(#mask12_953_12602)">
<mask id="mask13_953_12602" style="mask-type:luminance" maskUnits="userSpaceOnUse" x="46" y="125" width="233" height="214">
<path d="M236.759 125.528L46.5907 174.245L88.5743 338.129L278.742 289.412L236.759 125.528Z" fill="white"/>
</mask>
<g mask="url(#mask13_953_12602)">
<mask id="mask14_953_12602" style="mask-type:luminance" maskUnits="userSpaceOnUse" x="46" y="125" width="233" height="214">
<path d="M236.759 125.528L46.5907 174.245L88.5743 338.129L278.742 289.412L236.759 125.528Z" fill="white"/>
</mask>
<g mask="url(#mask14_953_12602)">
<path d="M212.137 177.049C211.935 177.72 211.758 178.396 211.602 179.078C211.447 179.759 211.317 180.441 211.209 181.128C211.104 181.813 211.021 182.497 210.965 183.179C210.907 183.86 210.874 184.539 210.868 185.212C210.86 185.886 210.879 186.551 210.921 187.207C210.962 187.867 211.032 188.512 211.123 189.15C211.215 189.784 211.334 190.405 211.472 191.014C211.614 191.621 211.78 192.211 211.968 192.785C212.157 193.359 212.367 193.913 212.6 194.448C212.833 194.982 213.09 195.492 213.365 195.983C213.642 196.473 213.941 196.936 214.257 197.376C214.576 197.817 214.911 198.23 215.265 198.618C215.623 199.003 215.994 199.36 216.382 199.69C216.773 200.02 217.177 200.319 217.596 200.588C218.014 200.856 218.449 201.092 218.892 201.3C219.339 201.505 219.796 201.677 220.264 201.818C220.732 201.959 221.209 202.067 221.694 202.142C222.179 202.214 222.672 202.256 223.168 202.264C223.667 202.27 224.168 202.245 224.675 202.184C225.182 202.123 225.689 202.031 226.199 201.904C226.709 201.776 227.216 201.618 227.723 201.424C228.233 201.233 228.737 201.009 229.236 200.754C229.738 200.499 230.234 200.211 230.724 199.895C231.212 199.579 231.694 199.233 232.168 198.859C232.641 198.485 233.104 198.083 233.556 197.653C234.007 197.224 234.448 196.769 234.877 196.29C235.304 195.811 235.717 195.309 236.116 194.783C236.512 194.259 236.895 193.713 237.26 193.148C237.626 192.58 237.972 191.998 238.302 191.397C238.629 190.796 238.939 190.18 239.228 189.551C239.516 188.92 239.785 188.28 240.031 187.626C240.278 186.972 240.502 186.31 240.704 185.639C240.904 184.968 241.084 184.292 241.236 183.611C241.392 182.929 241.522 182.248 241.63 181.563C241.735 180.876 241.818 180.194 241.874 179.51C241.932 178.828 241.965 178.149 241.971 177.476C241.979 176.803 241.96 176.138 241.918 175.481C241.877 174.822 241.807 174.176 241.716 173.542C241.624 172.904 241.508 172.284 241.367 171.677C241.225 171.067 241.059 170.477 240.874 169.903C240.685 169.33 240.472 168.776 240.239 168.241C240.006 167.709 239.751 167.196 239.474 166.706C239.197 166.218 238.898 165.753 238.582 165.312C238.263 164.872 237.928 164.459 237.573 164.074C237.219 163.686 236.845 163.328 236.457 162.999C236.066 162.669 235.662 162.37 235.243 162.101C234.825 161.832 234.393 161.597 233.946 161.389C233.5 161.184 233.043 161.012 232.575 160.871C232.107 160.729 231.63 160.621 231.145 160.549C230.66 160.474 230.167 160.433 229.671 160.427C229.172 160.419 228.671 160.447 228.164 160.505C227.657 160.566 227.15 160.66 226.64 160.785C226.13 160.912 225.623 161.073 225.116 161.264C224.609 161.455 224.104 161.68 223.603 161.935C223.101 162.189 222.605 162.478 222.118 162.794C221.627 163.109 221.145 163.456 220.671 163.83C220.198 164.207 219.735 164.608 219.283 165.035C218.832 165.465 218.391 165.919 217.964 166.398C217.535 166.878 217.122 167.382 216.723 167.906C216.327 168.432 215.944 168.975 215.579 169.543C215.213 170.109 214.866 170.69 214.537 171.292C214.21 171.893 213.899 172.508 213.611 173.14C213.323 173.769 213.054 174.412 212.808 175.063C212.561 175.717 212.337 176.379 212.137 177.049Z" fill="#3BB4FB"/>
</g>
</g>
</g>
<g clip-path="url(#clip0_953_12602)">
<path d="M1096.84 230.671C1098.72 231.165 1099.97 230.899 1100.52 230.708C1100.7 230.648 1100.79 230.428 1100.75 230.239C1097.54 216.913 1113.4 198.114 1115.5 195.69C1115.63 195.546 1115.77 195.28 1115.8 195.091C1116.08 193.641 1116.76 187.858 1111.34 184.343C1104.61 179.976 1102.34 176.262 1101.79 175.188C1101.7 175.016 1101.64 174.719 1101.63 174.527C1101.51 172.164 1100.48 158.516 1093.1 158.937C1083.95 159.46 1084.03 187.29 1084.03 187.29C1082.75 212.143 1094.53 228.076 1096.29 230.306C1096.41 230.456 1096.65 230.624 1096.84 230.671Z" fill="#A1DAFB"/>
<path d="M1103.34 231.814C1103.25 229.685 1104 218.381 1129.1 216.666C1140.65 215.873 1147.93 216.196 1152.51 217.007C1152.7 217.04 1152.95 216.953 1153.07 216.803C1153.35 216.449 1153.62 216.071 1153.85 215.672C1154.75 214.108 1155.95 210.933 1153.82 207.216C1151.16 202.589 1152.89 198.4 1153.05 198.038C1155.35 193.625 1155.95 189.91 1154.84 187C1153.73 184.085 1151.29 183.132 1151.18 183.091C1151.18 183.091 1151.15 183.079 1151.12 183.066C1151.09 183.052 1151.03 183.037 1150.99 183.032L1150.92 183.023C1149.74 182.839 1148.53 182.745 1147.32 182.745C1131.33 182.745 1115.84 198.816 1107.43 212.576C1102.26 221.026 1101.72 227.296 1102.14 231.003C1102.16 231.193 1102.31 231.433 1102.47 231.544L1103.08 231.96C1103.24 232.073 1103.35 232.006 1103.34 231.814Z" fill="#A1DAFB"/>
<path d="M1130.71 218.733C1130.52 218.745 1130.21 218.765 1130.02 218.778C1105.26 220.574 1104.52 231.786 1104.6 233.904C1104.61 234.096 1104.7 234.389 1104.79 234.558C1111.99 248.012 1148.09 238.609 1153.13 235.942C1156.83 233.99 1156.53 230.528 1156.33 229.437C1156.29 229.249 1156.39 229.021 1156.55 228.923C1157.68 228.23 1161.65 225.654 1161.45 223.673C1161.22 221.373 1158.13 216.895 1130.71 218.733Z" fill="#A1DAFB"/>
<path d="M1098.91 232.796C1098.64 232.816 1098.38 232.869 1098.13 232.953C1097.94 233.012 1097.7 232.967 1097.56 232.836C1095.66 230.982 1090.93 227.109 1084.3 226.958C1084.07 226.952 1083.87 227.142 1083.86 227.382C1083.86 227.619 1084.05 227.819 1084.29 227.824C1090.36 227.961 1094.88 231.503 1096.79 233.31C1096.93 233.444 1096.92 233.652 1096.79 233.789C1096.66 233.92 1096.54 234.062 1096.44 234.212C1096.33 234.371 1096.12 234.439 1095.95 234.355C1094.09 233.474 1089.75 231.832 1085.38 233.234C1085.15 233.307 1085.03 233.55 1085.1 233.78C1085.18 234.007 1085.42 234.134 1085.65 234.059C1089.72 232.749 1093.92 234.361 1095.63 235.172C1095.8 235.255 1095.9 235.473 1095.88 235.664C1095.85 235.876 1095.85 236.088 1095.86 236.308C1095.99 238.12 1097.56 239.488 1099.37 239.36C1101.18 239.233 1102.55 237.66 1102.42 235.851C1102.3 234.037 1100.73 232.671 1098.91 232.796Z" fill="#A1DAFB"/>
<path d="M1123.05 246.293C1122.05 245.571 1121.64 244.803 1121.48 244.379C1121.42 244.201 1121.24 244.017 1121.05 243.978C1119.71 243.705 1114.65 242.625 1110.43 241.017C1106.21 239.412 1103.59 235.223 1102.93 234.058C1102.83 233.893 1102.8 233.905 1102.84 234.092C1103.18 235.78 1102.82 237.19 1102.61 237.799C1102.55 237.979 1102.56 238.259 1102.66 238.423C1107.88 247.5 1116.84 245.217 1119.48 246.067C1122.14 246.929 1124.54 247.367 1123.05 246.293Z" fill="#A1DAFB"/>
</g>
<circle cx="1339.66" cy="797.928" r="8" fill="#729EB9"/>
<circle cx="1339.66" cy="827.928" r="8" fill="#729EB9"/>
<circle cx="1339.66" cy="857.928" r="8" fill="#729EB9"/>
<circle cx="1339.66" cy="887.928" r="8" fill="#729EB9"/>
<circle cx="1369.66" cy="797.928" r="8" fill="#729EB9"/>
<circle cx="1369.66" cy="827.928" r="8" fill="#729EB9"/>
<circle cx="1369.66" cy="857.928" r="8" fill="#729EB9"/>
<circle cx="1369.66" cy="887.928" r="8" fill="#729EB9"/>
<g opacity="0.2">
<circle cx="132.661" cy="985.928" r="8" fill="white"/>
<circle cx="132.661" cy="1015.93" r="8" fill="white"/>
<circle cx="132.661" cy="1045.93" r="8" fill="white"/>
<circle cx="132.661" cy="1075.93" r="8" fill="white"/>
<circle cx="162.661" cy="985.928" r="8" fill="white"/>
<circle cx="162.661" cy="1015.93" r="8" fill="white"/>
<circle cx="162.661" cy="1045.93" r="8" fill="white"/>
<circle cx="162.661" cy="1075.93" r="8" fill="white"/>
<circle cx="132.661" cy="865.928" r="8" fill="white"/>
<circle cx="132.661" cy="895.928" r="8" fill="white"/>
<circle cx="132.661" cy="925.928" r="8" fill="white"/>
<circle cx="132.661" cy="955.928" r="8" fill="white"/>
<circle cx="162.661" cy="865.928" r="8" fill="white"/>
<circle cx="162.661" cy="895.928" r="8" fill="white"/>
<circle cx="162.661" cy="925.928" r="8" fill="white"/>
<circle cx="162.661" cy="955.928" r="8" fill="white"/>
</g>
<g opacity="0.4">
<circle cx="723.661" cy="358.928" r="8" transform="rotate(-90 723.661 358.928)" fill="white"/>
<circle cx="753.661" cy="358.928" r="8" transform="rotate(-90 753.661 358.928)" fill="white"/>
<circle cx="783.661" cy="358.928" r="8" transform="rotate(-90 783.661 358.928)" fill="white"/>
<circle cx="813.661" cy="358.928" r="8" transform="rotate(-90 813.661 358.928)" fill="white"/>
<circle cx="723.661" cy="328.928" r="8" transform="rotate(-90 723.661 328.928)" fill="white"/>
<circle cx="753.661" cy="328.928" r="8" transform="rotate(-90 753.661 328.928)" fill="white"/>
<circle cx="783.661" cy="328.928" r="8" transform="rotate(-90 783.661 328.928)" fill="white"/>
<circle cx="813.661" cy="328.928" r="8" transform="rotate(-90 813.661 328.928)" fill="white"/>
</g>
<rect x="1333.66" y="366.928" width="14" height="44" rx="7" fill="#FF7B7B"/>
<rect x="1318.66" y="395.928" width="14" height="44" rx="7" transform="rotate(-90 1318.66 395.928)" fill="#FF7B7B"/>
<g opacity="0.1">
<rect x="627.661" y="170.928" width="14" height="44" rx="7" fill="black"/>
<rect x="612.661" y="199.928" width="14" height="44" rx="7" transform="rotate(-90 612.661 199.928)" fill="black"/>
</g>
<circle cx="831.161" cy="850.428" r="22.5" fill="#0F5784"/>
<circle cx="885.161" cy="588.428" r="10.5" fill="#EF8CC9"/>
<circle opacity="0.2" cx="396.161" cy="719.428" r="10.5" fill="white"/>
<defs>
<linearGradient id="paint0_linear_953_12602" x1="720" y1="0" x2="720" y2="1024" gradientUnits="userSpaceOnUse">
<stop stop-color="#3BB4FB"/>
<stop offset="1" stop-color="#236B95"/>
</linearGradient>
<clipPath id="clip0_953_12602">
<rect width="88" height="88" fill="white" transform="translate(1078.66 158.928)"/>
</clipPath>
</defs>
</svg>
