<svg width="150" height="40" viewBox="0 0 150 40" fill="none" xmlns="http://www.w3.org/2000/svg">
<mask id="mask0_776_14" style="mask-type:luminance" maskUnits="userSpaceOnUse" x="110" y="14" width="31" height="26">
<path d="M110.325 14.5947H140.323V39.4061H110.325V14.5947Z" fill="white"/>
</mask>
<g mask="url(#mask0_776_14)">
<mask id="mask1_776_14" style="mask-type:luminance" maskUnits="userSpaceOnUse" x="96" y="-7" width="59" height="54">
<path d="M107.057 -6.20908L154.164 5.92485L143.807 46.5721L96.7014 34.4382L107.057 -6.20908Z" fill="white"/>
</mask>
<g mask="url(#mask1_776_14)">
<mask id="mask2_776_14" style="mask-type:luminance" maskUnits="userSpaceOnUse" x="96" y="-7" width="59" height="54">
<path d="M107.057 -6.20908L154.164 5.92485L143.807 46.5721L96.7014 34.4382L107.057 -6.20908Z" fill="white"/>
</mask>
<g mask="url(#mask2_776_14)">
<path fill-rule="evenodd" clip-rule="evenodd" d="M122.877 27.1742C122.877 27.1742 127.092 22.0014 132.191 24.4909C137.289 26.9823 132.289 39.827 114.051 38.3504C114.051 38.3504 125.659 41.8984 136.071 34.6636C146.484 27.4289 135.633 12.9195 124.332 20.979C124.332 20.979 121.138 13.0354 115.648 15.371C110.159 17.7065 107.623 28.3962 116.683 35.0874C116.683 35.0874 111.272 23.4305 115.942 20.5932C120.613 17.7559 122.877 27.1742 122.877 27.1742Z" fill="#D64AA0"/>
</g>
</g>
</g>
<mask id="mask3_776_14" style="mask-type:luminance" maskUnits="userSpaceOnUse" x="117" y="0" width="10" height="13">
<path d="M117.582 0H126.292V12.1624H117.582V0Z" fill="white"/>
</mask>
<g mask="url(#mask3_776_14)">
<mask id="mask4_776_14" style="mask-type:luminance" maskUnits="userSpaceOnUse" x="96" y="-7" width="59" height="54">
<path d="M107.056 -6.20801L154.164 5.92592L143.806 46.5732L96.7009 34.4392L107.056 -6.20801Z" fill="white"/>
</mask>
<g mask="url(#mask4_776_14)">
<mask id="mask5_776_14" style="mask-type:luminance" maskUnits="userSpaceOnUse" x="96" y="-7" width="59" height="54">
<path d="M107.056 -6.20801L154.164 5.92592L143.806 46.5732L96.7009 34.4392L107.056 -6.20801Z" fill="white"/>
</mask>
<g mask="url(#mask5_776_14)">
<path d="M126.07 6.46746C126.034 6.86654 125.972 7.25802 125.883 7.6419C125.794 8.02768 125.681 8.40015 125.541 8.75742C125.403 9.11659 125.242 9.45296 125.059 9.77033C124.875 10.0877 124.673 10.3784 124.454 10.6426C124.233 10.9049 123.998 11.1367 123.749 11.3381C123.5 11.5377 123.241 11.703 122.972 11.8322C122.702 11.9615 122.43 12.0527 122.152 12.1059C121.874 12.1591 121.596 12.1724 121.32 12.1477C121.044 12.123 120.774 12.0584 120.511 11.9558C120.247 11.855 119.993 11.7163 119.753 11.5396C119.512 11.3647 119.287 11.1557 119.077 10.9144C118.867 10.673 118.676 10.4013 118.506 10.1029C118.336 9.80453 118.19 9.48147 118.066 9.1375C117.943 8.79163 117.844 8.43056 117.771 8.05428C117.699 7.67611 117.652 7.29033 117.633 6.89505C117.614 6.49977 117.623 6.10449 117.659 5.70541C117.695 5.30823 117.758 4.91675 117.846 4.53098C117.935 4.1452 118.049 3.77273 118.187 3.41545C118.325 3.05628 118.487 2.71992 118.669 2.40255C118.852 2.08519 119.054 1.79443 119.275 1.53218C119.495 1.26802 119.731 1.03618 119.98 0.834738C120.23 0.635198 120.489 0.469865 120.757 0.340639C121.025 0.211413 121.299 0.122095 121.577 0.0688848C121.853 0.0156742 122.131 0.000471249 122.407 0.0251761C122.683 0.0517816 122.953 0.114494 123.218 0.217114C123.481 0.319735 123.734 0.458463 123.976 0.633298C124.216 0.808133 124.443 1.01717 124.652 1.25852C124.862 1.50177 125.051 1.77163 125.221 2.06999C125.391 2.37025 125.539 2.69141 125.662 3.03728C125.786 3.38125 125.885 3.74232 125.957 4.1186C126.03 4.49677 126.076 4.88255 126.095 5.27783C126.113 5.67311 126.104 6.07029 126.07 6.46746Z" fill="#D64AA0"/>
</g>
</g>
</g>
<mask id="mask6_776_14" style="mask-type:luminance" maskUnits="userSpaceOnUse" x="129" y="2" width="12" height="14">
<path d="M129.679 2.4324H140.324V15.5678H129.679V2.4324Z" fill="white"/>
</mask>
<g mask="url(#mask6_776_14)">
<mask id="mask7_776_14" style="mask-type:luminance" maskUnits="userSpaceOnUse" x="96" y="-7" width="59" height="54">
<path d="M107.057 -6.20789L154.164 5.92604L143.807 46.5733L96.7012 34.4393L107.057 -6.20789Z" fill="white"/>
</mask>
<g mask="url(#mask7_776_14)">
<mask id="mask8_776_14" style="mask-type:luminance" maskUnits="userSpaceOnUse" x="96" y="-7" width="59" height="54">
<path d="M107.057 -6.20789L154.164 5.92604L143.807 46.5733L96.7012 34.4393L107.057 -6.20789Z" fill="white"/>
</mask>
<g mask="url(#mask8_776_14)">
<path d="M130.811 6.63125C130.609 7.02083 130.435 7.41991 130.289 7.82849C130.144 8.23707 130.03 8.64946 129.947 9.06374C129.864 9.47612 129.813 9.8847 129.794 10.2876C129.777 10.6886 129.792 11.0781 129.839 11.4525C129.889 11.8288 129.968 12.1842 130.08 12.5167C130.193 12.8512 130.335 13.1591 130.507 13.4384C130.679 13.7178 130.877 13.9648 131.102 14.1796C131.329 14.3943 131.576 14.5729 131.847 14.7155C132.115 14.8561 132.402 14.9587 132.707 15.0214C133.011 15.086 133.327 15.1069 133.654 15.0898C133.981 15.0727 134.311 15.0138 134.65 14.915C134.986 14.8162 135.321 14.6813 135.655 14.5045C135.988 14.3297 136.315 14.1207 136.632 13.8755C136.95 13.6304 137.254 13.3567 137.543 13.0507C137.834 12.7448 138.105 12.416 138.354 12.0625C138.605 11.7072 138.832 11.3366 139.035 10.947C139.237 10.5574 139.411 10.1584 139.556 9.74978C139.702 9.34119 139.815 8.92881 139.898 8.51453C139.981 8.10215 140.032 7.69356 140.051 7.29068C140.068 6.8897 140.053 6.50013 140.006 6.12575C139.957 5.74948 139.877 5.396 139.764 5.06154C139.653 4.72707 139.511 4.42111 139.339 4.13985C139.167 3.8605 138.968 3.61345 138.742 3.39871C138.517 3.18396 138.269 3.00533 137.999 2.8628C137.729 2.72217 137.441 2.61955 137.139 2.55684C136.835 2.49412 136.519 2.47132 136.192 2.48842C135.865 2.50743 135.532 2.56444 135.196 2.66326C134.859 2.76208 134.525 2.89891 134.19 3.07374C133.858 3.24857 133.531 3.45762 133.213 3.70277C132.896 3.94791 132.591 4.22157 132.302 4.52753C132.011 4.83349 131.741 5.16226 131.489 5.51573C131.24 5.8711 131.013 6.24167 130.811 6.63125Z" fill="#D64AA0"/>
</g>
</g>
</g>
<mask id="mask9_776_14" style="mask-type:luminance" maskUnits="userSpaceOnUse" x="140" y="11" width="10" height="10">
<path d="M140.323 11.1888H150V20.9187H140.323V11.1888Z" fill="white"/>
</mask>
<g mask="url(#mask9_776_14)">
<mask id="mask10_776_14" style="mask-type:luminance" maskUnits="userSpaceOnUse" x="96" y="-7" width="59" height="54">
<path d="M107.057 -6.20915L154.164 5.92478L143.807 46.572L96.7012 34.4381L107.057 -6.20915Z" fill="white"/>
</mask>
<g mask="url(#mask10_776_14)">
<mask id="mask11_776_14" style="mask-type:luminance" maskUnits="userSpaceOnUse" x="96" y="-7" width="59" height="54">
<path d="M107.057 -6.20915L154.164 5.92478L143.807 46.572L96.7012 34.4381L107.057 -6.20915Z" fill="white"/>
</mask>
<g mask="url(#mask11_776_14)">
<path d="M142.71 13.2943C142.463 13.5376 142.236 13.796 142.026 14.0697C141.818 14.3433 141.631 14.6265 141.469 14.9172C141.304 15.2099 141.168 15.5045 141.057 15.8047C140.945 16.1031 140.862 16.4014 140.807 16.696C140.752 16.9906 140.728 17.2775 140.732 17.5569C140.735 17.8381 140.767 18.1042 140.83 18.3569C140.892 18.6116 140.981 18.8453 141.1 19.0639C141.217 19.2805 141.361 19.4763 141.531 19.6492C141.701 19.8221 141.892 19.9704 142.108 20.092C142.321 20.2155 142.554 20.3086 142.805 20.3751C143.056 20.4416 143.321 20.4797 143.599 20.4873C143.877 20.4968 144.162 20.4759 144.457 20.4245C144.752 20.3751 145.048 20.2972 145.347 20.1889C145.648 20.0825 145.942 19.9494 146.235 19.7898C146.528 19.6321 146.812 19.4496 147.088 19.2425C147.364 19.0373 147.625 18.813 147.87 18.5679C148.118 18.3246 148.347 18.0662 148.554 17.7925C148.764 17.5189 148.949 17.2357 149.114 16.9449C149.276 16.6523 149.414 16.3577 149.524 16.0575C149.636 15.7591 149.719 15.4607 149.774 15.1662C149.828 14.8716 149.855 14.5847 149.851 14.3034C149.847 14.0241 149.813 13.758 149.751 13.5053C149.69 13.2506 149.6 13.015 149.482 12.7983C149.363 12.5817 149.22 12.3859 149.05 12.213C148.881 12.0401 148.689 11.8918 148.475 11.7702C148.26 11.6467 148.027 11.5536 147.778 11.4871C147.526 11.4205 147.262 11.3825 146.984 11.373C146.706 11.3654 146.419 11.3863 146.126 11.4357C145.831 11.4871 145.534 11.565 145.234 11.6714C144.935 11.7797 144.638 11.9127 144.345 12.0705C144.052 12.2301 143.769 12.4125 143.493 12.6197C143.219 12.8249 142.958 13.0492 142.71 13.2943Z" fill="#D64AA0"/>
</g>
</g>
</g>
<mask id="mask12_776_14" style="mask-type:luminance" maskUnits="userSpaceOnUse" x="105" y="2" width="9" height="12">
<path d="M105.487 2.43225H113.712V13.1352H105.487V2.43225Z" fill="white"/>
</mask>
<g mask="url(#mask12_776_14)">
<mask id="mask13_776_14" style="mask-type:luminance" maskUnits="userSpaceOnUse" x="96" y="-7" width="59" height="54">
<path d="M107.057 -6.20789L154.164 5.92604L143.807 46.5733L96.7012 34.4393L107.057 -6.20789Z" fill="white"/>
</mask>
<g mask="url(#mask13_776_14)">
<mask id="mask14_776_14" style="mask-type:luminance" maskUnits="userSpaceOnUse" x="96" y="-7" width="59" height="54">
<path d="M107.057 -6.20789L154.164 5.92604L143.807 46.5733L96.7012 34.4393L107.057 -6.20789Z" fill="white"/>
</mask>
<g mask="url(#mask14_776_14)">
<path d="M113.131 6.57093C113.23 6.9054 113.307 7.24177 113.36 7.58193C113.411 7.924 113.439 8.26037 113.443 8.59674C113.447 8.9312 113.426 9.25617 113.381 9.57163C113.335 9.889 113.265 10.1893 113.173 10.4743C113.078 10.7594 112.965 11.0235 112.827 11.2668C112.691 11.51 112.534 11.7286 112.358 11.9205C112.182 12.1124 111.992 12.2759 111.784 12.4089C111.576 12.5438 111.357 12.6445 111.126 12.7149C110.893 12.7852 110.655 12.8213 110.41 12.8251C110.162 12.8289 109.913 12.7985 109.661 12.7358C109.41 12.6731 109.16 12.578 108.913 12.4507C108.665 12.3234 108.423 12.1676 108.189 11.9813C107.954 11.7951 107.733 11.5822 107.522 11.3428C107.31 11.1052 107.113 10.8449 106.932 10.5636C106.752 10.2824 106.59 9.98592 106.448 9.67235C106.304 9.35879 106.183 9.03573 106.083 8.70126C105.983 8.36869 105.908 8.03042 105.855 7.69026C105.802 7.35009 105.775 7.01182 105.771 6.67735C105.768 6.34289 105.788 6.01792 105.834 5.70056C105.879 5.38509 105.949 5.08484 106.042 4.79978C106.134 4.51472 106.25 4.24867 106.388 4.00542C106.524 3.76217 106.681 3.54553 106.856 3.35359C107.032 3.15975 107.223 2.99822 107.431 2.86329C107.639 2.73026 107.858 2.62764 108.089 2.55923C108.319 2.48892 108.559 2.45281 108.805 2.44901C109.051 2.44521 109.3 2.47371 109.553 2.53833C109.805 2.60104 110.054 2.69606 110.302 2.82338C110.549 2.95071 110.791 3.10654 111.024 3.29278C111.258 3.47901 111.481 3.69186 111.693 3.9294C111.905 4.16885 112.101 4.4273 112.281 4.70856C112.462 4.98982 112.623 5.28818 112.766 5.60174C112.91 5.9153 113.031 6.23837 113.131 6.57093Z" fill="#D64AA0"/>
</g>
</g>
</g>
<path d="M7.99866 25.823C7.74161 25.823 7.10845 25.7698 6.10105 25.6634C6.01033 27.7918 5.96497 31.2866 5.96497 36.1459C5.96497 36.9516 5.68525 37.6434 5.12579 38.2211C4.56634 38.7988 3.85568 39.0877 2.99383 39.0877C2.13197 39.0877 1.41564 38.7988 0.846739 38.2211C0.281616 37.6434 0 36.9516 0 36.1459V29.791C0 27.4345 0.151203 23.9454 0.45361 19.3237C0.740896 14.6317 0.8921 11.1293 0.90722 8.81839C0.92234 4.8656 2.02612 2.97282 4.21857 3.14005C4.73266 3.00323 5.43954 2.90251 6.34298 2.83599C7.2502 2.76568 8.35398 2.72957 9.65433 2.72957C12.6179 2.72957 15.4001 3.69497 18.0008 5.62575C20.8831 7.78458 22.3252 10.4147 22.3252 13.5161C22.3252 17.4043 20.7923 20.4943 17.7286 22.79C15.0069 24.812 11.7636 25.823 7.99866 25.823ZM9.13268 8.61315C8.64883 8.61315 8.21979 8.61885 7.84745 8.62835C7.47889 8.63405 7.16704 8.65116 6.90999 8.68156C6.90999 9.39611 6.90243 10.4679 6.88731 11.897C6.85707 13.5845 6.71343 16.2128 6.45638 19.7798C7.22752 19.9014 7.74161 19.9622 7.99866 19.9622C10.3574 19.9622 12.3155 19.3997 13.8729 18.2747C15.5361 17.0736 16.3678 15.4887 16.3678 13.5161C16.3678 12.2239 15.5891 11.076 14.0317 10.0726C12.5348 9.09965 10.9018 8.61315 9.13268 8.61315Z" fill="#3BB4FB"/>
<path d="M34.4594 39.5893C30.8457 39.5893 27.8915 38.7227 25.5989 36.9896C23.0587 35.074 21.7886 32.3793 21.7886 28.9016C21.7886 25.0552 22.7941 21.8017 24.8051 19.1412C27.0429 16.1975 30.0556 14.7247 33.847 14.7247C36.478 14.7247 38.6629 15.1485 40.4017 15.9942C42.6849 17.1192 43.8265 18.8676 43.8265 21.2392C43.8265 22.9116 42.8966 24.3939 41.0368 25.6861C40.19 26.279 38.489 27.1456 35.9336 28.2858L28.2979 31.6761C29.018 32.4667 29.8931 33.0596 30.9213 33.4549C31.9494 33.8502 33.1288 34.0478 34.4594 34.0478C36.4855 34.0478 38.2017 33.6297 39.6079 32.7935C40.8629 32.0486 41.8684 31.6761 42.6244 31.6761C44.1912 31.6761 44.9756 32.4439 44.9756 33.9794C44.9756 35.7125 43.7149 37.1264 41.1955 38.221C39.0787 39.1332 36.8333 39.5893 34.4594 39.5893ZM33.847 20.2358C32.4408 20.2358 31.2388 20.7071 30.2408 21.6497C29.2429 22.5923 28.4434 24.0062 27.8443 25.8914C29.5472 25.1464 31.2463 24.4091 32.9398 23.6793C34.9811 22.7519 36.6065 21.893 37.8161 21.1024C36.8031 20.5247 35.48 20.2358 33.847 20.2358Z" fill="#3BB4FB"/>
<path d="M62.3489 20.1904C62.0314 20.1904 61.6553 20.1809 61.2225 20.16C60.7934 20.1353 60.4211 20.122 60.1036 20.122C59.4836 20.122 58.7654 20.1828 57.9489 20.3045C58.2211 26.4465 58.3572 30.4582 58.3572 32.3377C58.3572 32.5353 58.3647 32.9059 58.3798 33.4475C58.395 33.9853 58.4025 34.4205 58.4025 34.7549C58.4025 38.2516 57.3063 40 55.1138 40C54.2822 40 53.564 39.7416 52.9592 39.2246C52.2939 38.6773 51.9613 37.9932 51.9613 37.1722C51.9613 36.6249 51.9839 35.804 52.0293 34.7093C52.0747 33.6147 52.0973 32.7938 52.0973 32.2464C52.0973 30.4126 51.9631 26.4769 51.6967 20.4413C50.7592 20.3957 49.3398 20.2722 47.4403 20.0688C45.5446 19.8617 44.5977 18.8754 44.5977 17.1118C44.5977 16.2604 44.8849 15.5421 45.4595 14.953C46.0341 14.3601 46.775 14.0636 47.6822 14.0636C48.2417 14.0636 49.5269 14.1548 51.5379 14.3373C51.5228 13.8508 51.485 13.045 51.4245 11.92C51.364 10.947 51.3338 10.1944 51.3338 9.66233C51.3338 8.81096 51.6399 8.10402 52.2561 7.5415C52.876 6.97899 53.6245 6.69773 54.5015 6.69773C56.7393 6.69773 57.8582 8.59051 57.8582 12.3761L57.8128 14.246C58.7503 14.1092 59.5139 14.0408 60.1036 14.0408C61.8424 14.0408 63.0293 14.1548 63.6644 14.3829C64.874 14.8086 65.4788 15.734 65.4788 17.1574C65.4788 18.024 65.184 18.7461 64.5943 19.3239C64.0046 19.9016 63.2561 20.1904 62.3489 20.1904Z" fill="#3BB4FB"/>
<path d="M85.5909 38.8895C83.7311 38.8895 82.6953 37.9697 82.4837 36.1301C82.272 34.5642 82.0603 32.9907 81.8486 31.4096C81.6218 29.7429 81.5084 28.1713 81.5084 26.6966C81.5084 26.3013 81.533 25.6248 81.584 24.667C81.6388 23.7092 81.6672 23.0327 81.6672 22.6374C81.6672 22.531 81.6823 22.263 81.7125 21.8317C81.7428 21.3965 81.7579 21.0411 81.7579 20.7674C81.7579 19.5056 81.4328 18.8747 80.7826 18.8747C79.3916 18.8747 78.0251 19.6937 76.685 21.33C75.3488 22.9624 74.3036 25.0319 73.5475 27.5404C73.5173 28.0421 73.4493 28.7091 73.3434 29.5396C73.2527 30.2237 73.2073 30.8927 73.2073 31.5464C73.2073 31.9721 73.2546 32.6163 73.351 33.4772C73.4512 34.3343 73.5022 34.9747 73.5022 35.4004C73.5022 36.2669 73.2036 36.9853 72.6101 37.5516C72.0147 38.1236 71.2644 38.4106 70.3572 38.4106C69.4499 38.4106 68.7015 38.1236 68.1118 37.5516C67.5221 36.9853 67.2272 36.2669 67.2272 35.4004C67.2272 34.9747 67.1819 34.3343 67.0912 33.4772C67.0004 32.6163 66.9551 31.9721 66.9551 31.5464C66.9551 30.0926 67.0609 28.0649 67.2726 25.4652C67.4843 22.8655 67.5901 20.8359 67.5901 19.3764C67.5901 18.9203 67.5618 18.2418 67.507 17.3392C67.4559 16.4327 67.4314 15.758 67.4314 15.3171C67.4314 14.4658 67.7357 13.7645 68.3461 13.2115C68.9604 12.6604 69.7145 12.383 70.6066 12.383C72.5817 12.383 73.6383 13.5745 73.7743 15.9557L73.797 16.2065C76.0046 13.9774 78.3331 12.8619 80.7826 12.8619C83.6404 12.8619 85.6136 14.061 86.7022 16.4574C87.428 18.0689 87.7909 20.4786 87.7909 23.6864V25.3055C87.7758 26.0049 87.7682 26.499 87.7682 26.7878C87.7682 27.9737 87.9289 29.5016 88.2521 31.3716C88.5734 33.2377 88.7359 34.7542 88.7359 35.9249C88.7359 36.7762 88.4335 37.4832 87.8287 38.0457C87.2277 38.6082 86.483 38.8895 85.5909 38.8895Z" fill="#D64AA0"/>
<path d="M100.802 38.3196C97.1887 38.3196 94.2345 37.4531 91.9419 35.7199C89.4017 33.8043 88.1316 31.1096 88.1316 27.6319C88.1316 23.7855 89.1371 20.5321 91.1481 17.8715C93.3859 14.9279 96.3986 13.4551 100.19 13.4551C102.821 13.4551 105.006 13.8788 106.745 14.7245C109.028 15.8495 110.169 17.5979 110.169 19.9696C110.169 21.6419 109.24 23.1242 107.38 24.4164C106.533 25.0094 104.832 25.8759 102.277 27.0162L94.6409 30.4064C95.361 31.197 96.2361 31.7899 97.2643 32.1852C98.2925 32.5805 99.4718 32.7781 100.802 32.7781C102.829 32.7781 104.545 32.36 105.951 31.5239C107.206 30.7789 108.211 30.4064 108.967 30.4064C110.534 30.4064 111.319 31.1742 111.319 32.7097C111.319 34.4429 110.058 35.8567 107.539 36.9514C105.422 37.8635 103.176 38.3196 100.802 38.3196ZM100.19 18.9662C98.7839 18.9662 97.5818 19.4375 96.5839 20.38C95.5859 21.3226 94.7864 22.7365 94.1873 24.6217C95.8902 23.8767 97.5894 23.1394 99.2828 22.4096C101.324 21.4823 102.95 20.6233 104.159 19.8327C103.146 19.255 101.823 18.9662 100.19 18.9662Z" fill="#D64AA0"/>
</svg>
